<svg xmlns="http://www.w3.org/2000/svg" viewBox="0 0 520 430" role="img" aria-labelledby="title desc"><title id="title">第13题 细杆受力示意</title><desc id="desc">细杆受重力、细线沿 AO 的拉力、地面竖直向上的支持力，以及 B 端向右的静摩擦力。</desc><style>text{font-family:"PingFang SC","Microsoft YaHei","Noto Sans CJK SC",sans-serif;fill:#304458}</style><rect width="520" height="430" fill="white"/><path d="M120.0 50.0 L330.0 50.0" fill="none" stroke="#304458" stroke-width="2.2" stroke-linecap="round"/><path d="M126.0 50.0 L134.0 40.0" fill="none" stroke="#304458" stroke-width="1.3" stroke-linecap="round"/><path d="M138.0 50.0 L146.0 40.0" fill="none" stroke="#304458" stroke-width="1.3" stroke-linecap="round"/><path d="M150.0 50.0 L158.0 40.0" fill="none" stroke="#304458" stroke-width="1.3" stroke-linecap="round"/><path d="M162.0 50.0 L170.0 40.0" fill="none" stroke="#304458" stroke-width="1.3" stroke-linecap="round"/><path d="M174.0 50.0 L182.0 40.0" fill="none" stroke="#304458" stroke-width="1.3" stroke-linecap="round"/><path d="M186.0 50.0 L194.0 40.0" fill="none" stroke="#304458" stroke-width="1.3" stroke-linecap="round"/><path d="M198.0 50.0 L206.0 40.0" fill="none" stroke="#304458" stroke-width="1.3" stroke-linecap="round"/><path d="M210.0 50.0 L218.0 40.0" fill="none" stroke="#304458" stroke-width="1.3" stroke-linecap="round"/><path d="M222.0 50.0 L230.0 40.0" fill="none" stroke="#304458" stroke-width="1.3" stroke-linecap="round"/><path d="M234.0 50.0 L242.0 40.0" fill="none" stroke="#304458" stroke-width="1.3" stroke-linecap="round"/><path d="M246.0 50.0 L254.0 40.0" fill="none" stroke="#304458" stroke-width="1.3" stroke-linecap="round"/><path d="M258.0 50.0 L266.0 40.0" fill="none" stroke="#304458" stroke-width="1.3" stroke-linecap="round"/><path d="M270.0 50.0 L278.0 40.0" fill="none" stroke="#304458" stroke-width="1.3" stroke-linecap="round"/><path d="M282.0 50.0 L290.0 40.0" fill="none" stroke="#304458" stroke-width="1.3" stroke-linecap="round"/><path d="M294.0 50.0 L302.0 40.0" fill="none" stroke="#304458" stroke-width="1.3" stroke-linecap="round"/><path d="M306.0 50.0 L314.0 40.0" fill="none" stroke="#304458" stroke-width="1.3" stroke-linecap="round"/><path d="M318.0 50.0 L326.0 40.0" fill="none" stroke="#304458" stroke-width="1.3" stroke-linecap="round"/><path d="M40.0 370.0 L480.0 370.0" fill="none" stroke="#304458" stroke-width="2.2" stroke-linecap="round"/><path d="M46.0 370.0 L38.0 380.0" fill="none" stroke="#304458" stroke-width="1.3" stroke-linecap="round"/><path d="M58.0 370.0 L50.0 380.0" fill="none" stroke="#304458" stroke-width="1.3" stroke-linecap="round"/><path d="M70.0 370.0 L62.0 380.0" fill="none" stroke="#304458" stroke-width="1.3" stroke-linecap="round"/><path d="M82.0 370.0 L74.0 380.0" fill="none" stroke="#304458" stroke-width="1.3" stroke-linecap="round"/><path d="M94.0 370.0 L86.0 380.0" fill="none" stroke="#304458" stroke-width="1.3" stroke-linecap="round"/><path d="M106.0 370.0 L98.0 380.0" fill="none" stroke="#304458" stroke-width="1.3" stroke-linecap="round"/><path d="M118.0 370.0 L110.0 380.0" fill="none" stroke="#304458" stroke-width="1.3" stroke-linecap="round"/><path d="M130.0 370.0 L122.0 380.0" fill="none" stroke="#304458" stroke-width="1.3" stroke-linecap="round"/><path d="M142.0 370.0 L134.0 380.0" fill="none" stroke="#304458" stroke-width="1.3" stroke-linecap="round"/><path d="M154.0 370.0 L146.0 380.0" fill="none" stroke="#304458" stroke-width="1.3" stroke-linecap="round"/><path d="M166.0 370.0 L158.0 380.0" fill="none" stroke="#304458" stroke-width="1.3" stroke-linecap="round"/><path d="M178.0 370.0 L170.0 380.0" fill="none" stroke="#304458" stroke-width="1.3" stroke-linecap="round"/><path d="M190.0 370.0 L182.0 380.0" fill="none" stroke="#304458" stroke-width="1.3" stroke-linecap="round"/><path d="M202.0 370.0 L194.0 380.0" fill="none" stroke="#304458" stroke-width="1.3" stroke-linecap="round"/><path d="M214.0 370.0 L206.0 380.0" fill="none" stroke="#304458" stroke-width="1.3" stroke-linecap="round"/><path d="M226.0 370.0 L218.0 380.0" fill="none" stroke="#304458" stroke-width="1.3" stroke-linecap="round"/><path d="M238.0 370.0 L230.0 380.0" fill="none" stroke="#304458" stroke-width="1.3" stroke-linecap="round"/><path d="M250.0 370.0 L242.0 380.0" fill="none" stroke="#304458" stroke-width="1.3" stroke-linecap="round"/><path d="M262.0 370.0 L254.0 380.0" fill="none" stroke="#304458" stroke-width="1.3" stroke-linecap="round"/><path d="M274.0 370.0 L266.0 380.0" fill="none" stroke="#304458" stroke-width="1.3" stroke-linecap="round"/><path d="M286.0 370.0 L278.0 380.0" fill="none" stroke="#304458" stroke-width="1.3" stroke-linecap="round"/><path d="M298.0 370.0 L290.0 380.0" fill="none" stroke="#304458" stroke-width="1.3" stroke-linecap="round"/><path d="M310.0 370.0 L302.0 380.0" fill="none" stroke="#304458" stroke-width="1.3" stroke-linecap="round"/><path d="M322.0 370.0 L314.0 380.0" fill="none" stroke="#304458" stroke-width="1.3" stroke-linecap="round"/><path d="M334.0 370.0 L326.0 380.0" fill="none" stroke="#304458" stroke-width="1.3" stroke-linecap="round"/><path d="M346.0 370.0 L338.0 380.0" fill="none" stroke="#304458" stroke-width="1.3" stroke-linecap="round"/><path d="M358.0 370.0 L350.0 380.0" fill="none" stroke="#304458" stroke-width="1.3" stroke-linecap="round"/><path d="M370.0 370.0 L362.0 380.0" fill="none" stroke="#304458" stroke-width="1.3" stroke-linecap="round"/><path d="M382.0 370.0 L374.0 380.0" fill="none" stroke="#304458" stroke-width="1.3" stroke-linecap="round"/><path d="M394.0 370.0 L386.0 380.0" fill="none" stroke="#304458" stroke-width="1.3" stroke-linecap="round"/><path d="M406.0 370.0 L398.0 380.0" fill="none" stroke="#304458" stroke-width="1.3" stroke-linecap="round"/><path d="M418.0 370.0 L410.0 380.0" fill="none" stroke="#304458" stroke-width="1.3" stroke-linecap="round"/><path d="M430.0 370.0 L422.0 380.0" fill="none" stroke="#304458" stroke-width="1.3" stroke-linecap="round"/><path d="M442.0 370.0 L434.0 380.0" fill="none" stroke="#304458" stroke-width="1.3" stroke-linecap="round"/><path d="M454.0 370.0 L446.0 380.0" fill="none" stroke="#304458" stroke-width="1.3" stroke-linecap="round"/><path d="M466.0 370.0 L458.0 380.0" fill="none" stroke="#304458" stroke-width="1.3" stroke-linecap="round"/><path d="M478.0 370.0 L470.0 380.0" fill="none" stroke="#304458" stroke-width="1.3" stroke-linecap="round"/><path d="M200 50 L330 180" fill="none" stroke="#304458" stroke-width="2" stroke-linejoin="round" stroke-linecap="round"/><path d="M330 180 L110 370" stroke="#304458" stroke-width="12" fill="none"/><path d="M330 180 L110 370" stroke="#f7fafb" stroke-width="8" fill="none"/><text x="352.0" y="184.0" text-anchor="middle" style="font-size:22px;fill:#304458;font-weight:400"><tspan style="font-style:italic">A</tspan></text><text x="86.0" y="362.0" text-anchor="middle" style="font-size:22px;fill:#304458;font-weight:400"><tspan style="font-style:italic">B</tspan></text><text x="182.0" y="76.0" text-anchor="middle" style="font-size:22px;fill:#304458;font-weight:400"><tspan style="font-style:italic">O</tspan></text><circle cx="220.0" cy="275.0" r="4.5" fill="#304458"/><path d="M220.0 275.0 L220.0 343.0" fill="none" stroke="#b25132" stroke-width="2.8" stroke-linecap="round"/><polygon points="220.0,343.0 226.0,330.0 214.0,330.0" fill="#b25132"/><text x="240.0" y="341.0" text-anchor="middle" style="font-size:21px;fill:#b25132;font-weight:400"><tspan style="font-style:italic">G</tspan></text><path d="M330.0 180.0 L255.8 105.8" fill="none" stroke="#147d92" stroke-width="2.8" stroke-linecap="round"/><polygon points="255.8,105.8 260.7,119.2 269.2,110.7" fill="#147d92"/><text x="285.8" y="109.8" text-anchor="middle" style="font-size:21px;fill:#147d92;font-weight:400"><tspan style="font-style:italic">F<tspan dy="5" style="font-size:0.72em;font-style:normal">T</tspan><tspan dy="-5"></tspan></tspan></text><path d="M110.0 370.0 L110.0 260.0" fill="none" stroke="#147d92" stroke-width="2.8" stroke-linecap="round"/><polygon points="110.0,260.0 104.0,273.0 116.0,273.0" fill="#147d92"/><text x="80.0" y="270.0" text-anchor="middle" style="font-size:21px;fill:#147d92;font-weight:400"><tspan style="font-style:italic">F<tspan dy="5" style="font-size:0.72em;font-style:normal">N</tspan><tspan dy="-5"></tspan></tspan></text><path d="M114.0 356.0 L190.0 356.0" fill="none" stroke="#a36b00" stroke-width="2.8" stroke-linecap="round" stroke-dasharray="6 4"/><polygon points="190.0,356.0 177.0,350.0 177.0,362.0" fill="#a36b00"/><text x="202.0" y="350.0" text-anchor="middle" style="font-size:21px;fill:#a36b00;font-weight:400"><tspan style="font-style:italic">f</tspan></text><text x="260.0" y="416.0" text-anchor="middle" style="font-size:17px;fill:#304458;font-weight:400">地面水平：支持力垂直地面，竖直向上</text></svg>