<svg xmlns="http://www.w3.org/2000/svg" viewBox="0 0 620 420" role="img" aria-labelledby="title desc"><title id="title">第4题 平行四边形作合力</title><desc id="desc">以 F1=(4,2)、F2=(3,−2) 格为邻边作平行四边形，对角线 F 沿水平方向、长 7 格，即 7 N；F′ 为一个测力计的实测拉力。</desc><style>text{font-family:"PingFang SC","Microsoft YaHei","Noto Sans CJK SC",sans-serif;fill:#304458}</style><rect width="620" height="420" fill="white"/><path d="M60.0 60.0 L60.0 340.0" fill="none" stroke="#d5dde4" stroke-width="1" stroke-linecap="round"/><path d="M116.0 60.0 L116.0 340.0" fill="none" stroke="#d5dde4" stroke-width="1" stroke-linecap="round"/><path d="M172.0 60.0 L172.0 340.0" fill="none" stroke="#d5dde4" stroke-width="1" stroke-linecap="round"/><path d="M228.0 60.0 L228.0 340.0" fill="none" stroke="#d5dde4" stroke-width="1" stroke-linecap="round"/><path d="M284.0 60.0 L284.0 340.0" fill="none" stroke="#d5dde4" stroke-width="1" stroke-linecap="round"/><path d="M340.0 60.0 L340.0 340.0" fill="none" stroke="#d5dde4" stroke-width="1" stroke-linecap="round"/><path d="M396.0 60.0 L396.0 340.0" fill="none" stroke="#d5dde4" stroke-width="1" stroke-linecap="round"/><path d="M452.0 60.0 L452.0 340.0" fill="none" stroke="#d5dde4" stroke-width="1" stroke-linecap="round"/><path d="M508.0 60.0 L508.0 340.0" fill="none" stroke="#d5dde4" stroke-width="1" stroke-linecap="round"/><path d="M564.0 60.0 L564.0 340.0" fill="none" stroke="#d5dde4" stroke-width="1" stroke-linecap="round"/><path d="M60.0 60.0 L564.0 60.0" fill="none" stroke="#d5dde4" stroke-width="1" stroke-linecap="round"/><path d="M60.0 116.0 L564.0 116.0" fill="none" stroke="#d5dde4" stroke-width="1" stroke-linecap="round"/><path d="M60.0 172.0 L564.0 172.0" fill="none" stroke="#d5dde4" stroke-width="1" stroke-linecap="round"/><path d="M60.0 228.0 L564.0 228.0" fill="none" stroke="#d5dde4" stroke-width="1" stroke-linecap="round"/><path d="M60.0 284.0 L564.0 284.0" fill="none" stroke="#d5dde4" stroke-width="1" stroke-linecap="round"/><path d="M60.0 340.0 L564.0 340.0" fill="none" stroke="#d5dde4" stroke-width="1" stroke-linecap="round"/><path d="M284.0 116.0 L452.0 228.0" fill="none" stroke="#8a99a8" stroke-width="1.6" stroke-linecap="round" stroke-dasharray="6 5"/><path d="M228.0 340.0 L452.0 228.0" fill="none" stroke="#8a99a8" stroke-width="1.6" stroke-linecap="round" stroke-dasharray="6 5"/><path d="M60.0 228.0 L284.0 116.0" fill="none" stroke="#147d92" stroke-width="2.8" stroke-linecap="round"/><polygon points="284.0,116.0 269.7,116.4 275.1,127.2" fill="#147d92"/><text x="278.0" y="102.0" text-anchor="middle" style="font-size:21px;fill:#147d92;font-weight:400"><tspan style="font-style:italic">F</tspan><tspan dy="5" style="font-size:0.72em">1</tspan><tspan dy="-5" style="font-style:italic">&#8203;</tspan></text><path d="M60.0 228.0 L228.0 340.0" fill="none" stroke="#147d92" stroke-width="2.8" stroke-linecap="round"/><polygon points="228.0,340.0 220.5,327.8 213.9,337.8" fill="#147d92"/><text x="198.0" y="350.0" text-anchor="middle" style="font-size:21px;fill:#147d92;font-weight:400"><tspan style="font-style:italic">F</tspan><tspan dy="5" style="font-size:0.72em">2</tspan><tspan dy="-5" style="font-style:italic">&#8203;</tspan></text><path d="M60.0 228.0 L401.6 247.6" fill="none" stroke="#a36b00" stroke-width="2.2" stroke-linecap="round"/><polygon points="401.6,247.6 389.0,240.9 388.3,252.8" fill="#a36b00"/><text x="405.6" y="277.6" text-anchor="middle" style="font-size:21px;fill:#a36b00;font-weight:400"><tspan style="font-style:italic">F'</tspan></text><path d="M60.0 228.0 L452.0 228.0" fill="none" stroke="#b25132" stroke-width="3.2" stroke-linecap="round"/><polygon points="452.0,228.0 439.0,222.0 439.0,234.0" fill="#b25132"/><text x="472.0" y="234.0" text-anchor="middle" style="font-size:21px;fill:#b25132;font-weight:400"><tspan style="font-style:italic">F</tspan></text><circle cx="60.0" cy="228.0" r="4.5" fill="#304458"/><text x="42.0" y="234.0" text-anchor="middle" style="font-size:20px;fill:#304458;font-weight:400"><tspan style="font-style:italic">O</tspan></text><text x="452.0" y="396.0" text-anchor="end" style="font-size:17px;fill:#304458;font-weight:400">1 格 = 1 N；<tspan style="font-style:italic">F</tspan> 长 7 格 → <tspan style="font-style:italic">F</tspan> = 7 N</text><text x="312.0" y="38.0" text-anchor="middle" style="font-size:17px;fill:#304458;font-weight:400"><tspan style="font-style:italic">F</tspan> 比实测 <tspan style="font-style:italic">F'</tspan> 更偏向 <tspan style="font-style:italic">F</tspan><tspan dy="5" style="font-size:0.72em">1</tspan><tspan dy="-5" style="font-style:italic">&#8203;</tspan> → 记录的 <tspan style="font-style:italic">F</tspan><tspan dy="5" style="font-size:0.72em">1</tspan><tspan dy="-5" style="font-style:italic">&#8203;</tspan> 偏大</text></svg>